<?xml version="1.0" encoding="UTF-8"?>
<!DOCTYPE svg PUBLIC "-//W3C//DTD SVG 1.1//EN" "http://www.w3.org/Graphics/SVG/1.1/DTD/svg11.dtd">
<!-- Creator: CorelDRAW -->
<svg xmlns="http://www.w3.org/2000/svg" xml:space="preserve" width="6.794mm" height="7.279mm" version="1.1" style="shape-rendering:geometricPrecision; text-rendering:geometricPrecision; image-rendering:optimizeQuality; fill-rule:evenodd; clip-rule:evenodd"
viewBox="0 0 53.81 57.65"
 xmlns:xlink="http://www.w3.org/1999/xlink"
 xmlns:xodm="http://www.corel.com/coreldraw/odm/2003">
 <defs>
  <style type="text/css">
   <![CDATA[
    .fil1 {fill:silver;fill-rule:nonzero}
    .fil0 {fill:silver;fill-rule:nonzero;fill-opacity:0.400000}
   ]]>
  </style>
 </defs>
 <g id="Camada_x0020_1">
  <metadata id="CorelCorpID_0Corel-Layer"/>
  <g id="_2762358778784">
   <path class="fil0" d="M53.81 25.21c0,-9.61 -5,-16.76 -13.45,-21.75 -4.23,-2.31 -8.84,-3.46 -13.45,-3.46 -4.61,0 -9.22,1.15 -13.45,3.46 -8.46,5 -13.45,13.84 -13.45,23.44l0 23.06c0,0 0,7.69 7.69,7.69l3.84 0c2.31,0 3.84,-1.54 3.84,-3.84l0 -15.37c0,-2.31 -1.92,-3.84 -3.84,-3.84 0,0 -3.84,0 -3.84,-3.84l0 -3.84c0,-6.92 3.84,-13.07 9.61,-16.53 5.77,-3.46 13.45,-3.46 19.22,0 5.77,3.46 9.8,8.65 9.8,15.68l7.49 -0.08 0 -0.77z"/>
   <path class="fil1" d="M30.75 29.98c-1.23,0 -2.31,0.46 -3.23,1.38 -1.84,1.85 -1.84,4.61 0,6.46l6 6 -6 6c-1.84,1.84 -1.84,4.61 0,6.46 1.85,1.84 4.61,1.84 6.46,0l6 -6 6 6c1.84,1.84 4.61,1.84 6.46,0 1.84,-1.84 1.84,-4.61 0,-6.46l-6 -6 6 -6c1.84,-1.85 1.84,-4.61 0,-6.46 -0.92,-0.92 -2,-1.38 -3.23,-1.38 -1.23,0 -2.31,0.46 -3.23,1.38l-6 6 -6 -6c-0.92,-0.92 -2,-1.38 -3.23,-1.38z"/>
  </g>
 </g>
</svg>
